<svg xmlns="http://www.w3.org/2000/svg" viewBox="0 0 1200 600">
  <defs>
    <linearGradient id="bg" x1="0%" y1="0%" x2="100%" y2="100%">
      <stop offset="0%" style="stop-color:#0a0e1c;stop-opacity:1"/>
      <stop offset="100%" style="stop-color:#0078D4;stop-opacity:0.3"/>
    </linearGradient>
    <linearGradient id="glow" x1="0%" y1="0%" x2="100%" y2="0%">
      <stop offset="0%" style="stop-color:#0078D4;stop-opacity:0.8"/>
      <stop offset="50%" style="stop-color:#00A4EF;stop-opacity:0.6"/>
      <stop offset="100%" style="stop-color:#0078D4;stop-opacity:0.8"/>
    </linearGradient>
  </defs>
  <rect width="1200" height="600" fill="url(#bg)"/>
  <!-- Grid lines -->
  <g stroke="#0078D4" stroke-opacity="0.1" stroke-width="1">
    <line x1="0" y1="100" x2="1200" y2="100"/>
    <line x1="0" y1="200" x2="1200" y2="200"/>
    <line x1="0" y1="300" x2="1200" y2="300"/>
    <line x1="0" y1="400" x2="1200" y2="400"/>
    <line x1="0" y1="500" x2="1200" y2="500"/>
    <line x1="200" y1="0" x2="200" y2="600"/>
    <line x1="400" y1="0" x2="400" y2="600"/>
    <line x1="600" y1="0" x2="600" y2="600"/>
    <line x1="800" y1="0" x2="800" y2="600"/>
    <line x1="1000" y1="0" x2="1000" y2="600"/>
  </g>
  <!-- Shield icon -->
  <g transform="translate(540, 180)">
    <path d="M60 0 L120 30 L120 80 C120 130 90 160 60 180 C30 160 0 130 0 80 L0 30 Z" fill="none" stroke="url(#glow)" stroke-width="3"/>
    <path d="M60 20 L100 42 L100 78 C100 115 78 138 60 152 C42 138 20 115 20 78 L20 42 Z" fill="#0078D4" fill-opacity="0.15"/>
    <text x="60" y="105" text-anchor="middle" fill="#00A4EF" font-family="monospace" font-size="36" font-weight="bold">ZT</text>
  </g>
  <!-- Connection nodes -->
  <g fill="#00A4EF" fill-opacity="0.6">
    <circle cx="300" cy="150" r="4"/>
    <circle cx="900" cy="150" r="4"/>
    <circle cx="300" cy="450" r="4"/>
    <circle cx="900" cy="450" r="4"/>
    <circle cx="150" cy="300" r="3"/>
    <circle cx="1050" cy="300" r="3"/>
  </g>
  <!-- Connection lines -->
  <g stroke="#00A4EF" stroke-opacity="0.2" stroke-width="1" stroke-dasharray="4,4">
    <line x1="300" y1="150" x2="540" y2="270"/>
    <line x1="900" y1="150" x2="660" y2="270"/>
    <line x1="300" y1="450" x2="540" y2="360"/>
    <line x1="900" y1="450" x2="660" y2="360"/>
    <line x1="150" y1="300" x2="540" y2="300"/>
    <line x1="1050" y1="300" x2="660" y2="300"/>
  </g>
  <!-- Bottom text area -->
  <text x="600" y="440" text-anchor="middle" fill="#ffffff" font-family="system-ui, sans-serif" font-size="28" font-weight="700" letter-spacing="2">ZSCALER DEPLOY KIT</text>
  <text x="600" y="475" text-anchor="middle" fill="#00A4EF" font-family="monospace" font-size="14" letter-spacing="4">ZERO TRUST INFRASTRUCTURE-AS-CODE</text>
  <!-- Decorative dots -->
  <g fill="#FFB900" fill-opacity="0.5">
    <circle cx="460" cy="440" r="2"/>
    <circle cx="740" cy="440" r="2"/>
    <circle cx="460" cy="475" r="1.5"/>
    <circle cx="740" cy="475" r="1.5"/>
  </g>
</svg>
